<svg xmlns="http://www.w3.org/2000/svg" fill="#ea0834" width="800px" height="800px" viewBox="0 0 64 64" data-name="Layer 1" id="Layer_1"><title/><path d="M55.43,55.68H8.57a5.51,5.51,0,0,1-5.5-5.5V13.82a5.51,5.51,0,0,1,5.5-5.5H55.43a5.51,5.51,0,0,1,5.5,5.5V50.18A5.51,5.51,0,0,1,55.43,55.68ZM8.57,11.32a2.5,2.5,0,0,0-2.5,2.5V50.18a2.5,2.5,0,0,0,2.5,2.5H55.43a2.5,2.5,0,0,0,2.5-2.5V13.82a2.5,2.5,0,0,0-2.5-2.5Z" fill="#ea0834"/><path d="M32,27.21a2,2,0,0,1-.42-.05l-17.25-5a1.5,1.5,0,0,1,.84-2.89L32,24.15l16.83-4.88a1.5,1.5,0,0,1,.84,2.89l-17.25,5A2,2,0,0,1,32,27.21Z" fill="#ea0834"/><path d="M50.77,47.81a1.51,1.51,0,0,1-1.06-.44l-8.18-8.19a1.49,1.49,0,0,1,0-2.12,1.51,1.51,0,0,1,2.12,0l8.18,8.18a1.51,1.51,0,0,1-1.06,2.57Z" fill="#ea0834"/><path d="M42.59,47.81a1.51,1.51,0,0,1-1.06-2.57l8.18-8.18a1.51,1.51,0,0,1,2.12,0,1.49,1.49,0,0,1,0,2.12l-8.18,8.19A1.51,1.51,0,0,1,42.59,47.81Z" fill="#ea0834"/></svg>